<svg width="24" height="24" viewBox="0 0 24 24" fill="none" xmlns="http://www.w3.org/2000/svg">
<path fill-rule="evenodd" clip-rule="evenodd" d="M16.8946 4.75188C17.1758 4.99109 17.4396 5.21563 17.6811 5.41C18.1511 5.84592 18.5668 6.21189 18.9339 6.53519C21.1483 8.48506 21.6001 8.88287 21.6001 13.713C21.6001 22 19.6411 22 12.0141 22C4.3871 22 2.4281 22 2.4281 13.713C2.4281 8.88226 2.87924 8.48496 5.09416 6.53445C5.46108 6.21133 5.8764 5.84559 6.3461 5.41C6.57214 5.22795 6.81826 5.02046 7.08002 4.79978C8.50776 3.5961 10.401 2 12.0421 2C13.6607 2 15.4922 3.55854 16.8946 4.75188ZM14.9214 15.3855C15.3356 15.3855 15.6714 15.7213 15.6714 16.1355C15.6714 16.5497 15.3356 16.8855 14.9214 16.8855H9.10639C8.69217 16.8855 8.35639 16.5497 8.35639 16.1355C8.35639 15.7213 8.69217 15.3855 9.10639 15.3855H14.9214Z" fill="#3162FF"/>
</svg>
